# xmcd CD database file
#
# Track frame offsets:
#	150
#	17900
#	36780
#	69307
#	104140
#	132845
#	154177
#
# Disc length: 2326 seconds
#
# Revision: 2
# Processed by: cddbd v1.5.2PL0 Copyright (c) Steve Scherf et al.
# Submitted via: CDex 1.70beta2
#
DISCID=5b091407
DTITLE=Robert Miles - Fable (maxi)
DYEAR=1996
DGENRE=Dream
TTITLE0=Dream radio
TTITLE1=Message radio
TTITLE2=Dream vrs.
TTITLE3=Message vrs.
TTITLE4=Club vrs.
TTITLE5=Wake-up vrs.
TTITLE6=Psyco vrs.
EXTD=YEAR: 1996
EXTT0=
EXTT1=
EXTT2=
EXTT3=
EXTT4=
EXTT5=
EXTT6=
PLAYORDER=
